<?xml version="1.0" encoding="utf-8"?>
<svg version="1.1" id="Layer_1" xmlns="http://www.w3.org/2000/svg" xmlns:xlink="http://www.w3.org/1999/xlink" x="0px" y="0px"
	 viewBox="0 0 40 40" style="enable-background:new 0 0 40 40;" xml:space="preserve">
<style type="text/css">
	.st0{fill:#505064;}
</style>
<g>
	<path class="st0" d="M33.5,18.6L21.4,6.5c-0.8-0.8-2-0.8-2.8,0L6.5,18.6C6.1,19,5.9,19.5,5.9,20v12.1c0,1.1,0.9,2,2,2h7
		c1.1,0,2-0.9,2-2l0-6.8c0-1.5,1-2.9,2.5-3.2c2-0.4,3.8,1.1,3.8,3.1v6.9c0,1.1,0.9,2,2,2h7c1.1,0,2-0.9,2-2V20
		C34.1,19.5,33.9,19,33.5,18.6z"/>
</g>
</svg>
