<?xml version="1.0" encoding="utf-8"?>
<svg version="1.1" id="Layer_1" xmlns="http://www.w3.org/2000/svg" xmlns:xlink="http://www.w3.org/1999/xlink" x="0px" y="0px"
	 viewBox="0 0 40 40" style="enable-background:new 0 0 40 40;" xml:space="preserve">
<style type="text/css">
	.st0{clip-path:url(#SVGID_3_);fill:url(#SVGID_4_);}
	.st1{clip-path:url(#SVGID_7_);fill:url(#SVGID_8_);}
	.st2{clip-path:url(#SVGID_10_);fill:url(#SVGID_11_);}
	.st3{clip-path:url(#SVGID_13_);fill:url(#SVGID_14_);}
</style>
<g>
	<defs>
		<path id="SVGID_5_" d="M33.5,18.6L21.4,6.5c-0.8-0.8-2-0.8-2.8,0L6.5,18.6C6.1,19,5.9,19.5,5.9,20v12.1c0,1.1,0.9,2,2,2h7
			c1.1,0,2-0.9,2-2l0-6.8c0-1.5,1-2.9,2.5-3.2c2-0.4,3.8,1.1,3.8,3.1v6.9c0,1.1,0.9,2,2,2h7c1.1,0,2-0.9,2-2V20
			C34.1,19.5,33.9,19,33.5,18.6z"/>
	</defs>
	<linearGradient id="SVGID_2_" gradientUnits="userSpaceOnUse" x1="5.9099" y1="20.0131" x2="34.1165" y2="20.0131">
		<stop  offset="0.15" style="stop-color:#837AFF"/>
		<stop  offset="0.6041" style="stop-color:#FF545C"/>
		<stop  offset="1" style="stop-color:#FF8B6A"/>
	</linearGradient>
	<use xlink:href="#SVGID_5_"  style="overflow:visible;fill:url(#SVGID_2_);"/>
	<clipPath id="SVGID_3_">
		<use xlink:href="#SVGID_5_"  style="overflow:visible;"/>
	</clipPath>
	<linearGradient id="SVGID_4_" gradientUnits="userSpaceOnUse" x1="-2.819" y1="15.9872" x2="42.8452" y2="24.039">
		<stop  offset="0.15" style="stop-color:#837AFF"/>
		<stop  offset="0.6041" style="stop-color:#FF545C"/>
		<stop  offset="1" style="stop-color:#FF8B6A"/>
	</linearGradient>
	<rect x="0" class="st0" width="40" height="40"/>
</g>
</svg>
