<?xml version="1.0" encoding="utf-8"?>
<svg version="1.1" id="Layer_1" xmlns="http://www.w3.org/2000/svg" xmlns:xlink="http://www.w3.org/1999/xlink" x="0px" y="0px"
	 viewBox="0 0 40 40" style="enable-background:new 0 0 40 40;" xml:space="preserve">
<style type="text/css">
	.st0{fill:#505064;}
</style>
<g>
	<path class="st0" d="M32.3,10.1H12.6l-0.6-2.7c-0.1-0.3-0.3-0.6-0.5-0.9c0,0,0,0,0,0c-0.1-0.1-0.1-0.1-0.2-0.2c0,0-0.1,0-0.1-0.1
		c-0.1,0-0.1-0.1-0.2-0.1c0,0-0.1-0.1-0.1-0.1c0,0-0.1,0-0.2,0c-0.1,0-0.1,0-0.2-0.1c0,0-0.1,0-0.1,0c-0.1,0-0.1,0-0.2,0H6.2
		c-1,0-1.9,0.8-1.9,1.9s0.8,1.9,1.9,1.9h2.5l0.6,2.8c0,0,0,0,0,0l0.6,2.6l0.7,3c0,0,0,0,0,0l1.4,6.3c0.2,0.8,1,1.5,1.8,1.5h15.7
		c0.8,0,1.6-0.6,1.8-1.5L34,12.5C34.3,11.2,33.5,10.1,32.3,10.1z"/>
	<path class="st0" d="M16.4,27.5c-1.8,0-3.3,1.5-3.3,3.3c0,1.8,1.5,3.3,3.3,3.3c1.8,0,3.3-1.5,3.3-3.3C19.7,29,18.3,27.5,16.4,27.5z
		"/>
	<path class="st0" d="M26.9,27.5c-1.8,0-3.3,1.5-3.3,3.3c0,1.8,1.5,3.3,3.3,3.3s3.3-1.5,3.3-3.3C30.2,29,28.7,27.5,26.9,27.5z"/>
</g>
</svg>
