<?xml version="1.0" encoding="utf-8"?>
<svg version="1.1" id="Layer_1" xmlns="http://www.w3.org/2000/svg" xmlns:xlink="http://www.w3.org/1999/xlink" x="0px" y="0px"
	 viewBox="0 0 40 40" style="enable-background:new 0 0 40 40;" xml:space="preserve">
<style type="text/css">
	.st0{clip-path:url(#SVGID_3_);fill:url(#SVGID_4_);}
	.st1{clip-path:url(#SVGID_7_);fill:url(#SVGID_8_);}
	.st2{clip-path:url(#SVGID_10_);fill:url(#SVGID_11_);}
	.st3{clip-path:url(#SVGID_13_);fill:url(#SVGID_14_);}
</style>
<g>
	<defs>
		<path id="SVGID_12_" d="M24.9,17.7c-1.3,1.3-3,2-4.9,2s-3.7-0.8-4.9-2s-2-3-2-4.9s0.8-3.6,2-4.9s3-2,4.9-2s3.7,0.8,4.9,2
			s2,3,2,4.9S26.2,16.5,24.9,17.7z M20,21.7c-3.4,0-6.6,1.1-9,2.9s-4.2,4.3-4.8,7.1c-0.1,0.6,0,1.2,0.4,1.7c0.4,0.4,0.9,0.7,1.6,0.7
			H20h11.9c0.6,0,1.2-0.3,1.6-0.7s0.5-1,0.4-1.7c-0.6-2.8-2.4-5.3-4.8-7.1S23.4,21.7,20,21.7z"/>
	</defs>
	<clipPath id="SVGID_2_">
		<use xlink:href="#SVGID_12_"  style="overflow:visible;"/>
	</clipPath>
	<linearGradient id="SVGID_3_" gradientUnits="userSpaceOnUse" x1="-2.819" y1="15.9872" x2="42.8452" y2="24.039">
		<stop  offset="0.2" style="stop-color:#837AFF"/>
		<stop  offset="0.6041" style="stop-color:#FF545C"/>
		<stop  offset="1" style="stop-color:#FF8B6A"/>
	</linearGradient>
	<rect x="0" style="clip-path:url(#SVGID_2_);fill:url(#SVGID_3_);" width="40" height="40"/>
</g>
</svg>
