<?xml version="1.0" encoding="utf-8"?>
<svg version="1.1" id="Layer_1" xmlns="http://www.w3.org/2000/svg" xmlns:xlink="http://www.w3.org/1999/xlink" x="0px" y="0px"
	 viewBox="0 0 40 40" style="enable-background:new 0 0 40 40;" xml:space="preserve">
<style type="text/css">
	.st0{fill:#505064;}
</style>
<g>
	<g>
		<path class="st0" d="M27,12.8c0-1.9-0.8-3.6-2-4.9s-3-2-4.9-2s-3.7,0.8-4.9,2s-2,3-2,4.9s0.8,3.6,2,4.9s3,2,4.9,2s3.7-0.8,4.9-2
			S27,14.7,27,12.8z"/>
	</g>
	<g>
		<path class="st0" d="M20,21.7c-3.4,0-6.6,1.1-9,2.9s-4.2,4.3-4.8,7.1c-0.1,0.6,0,1.2,0.4,1.7c0.4,0.4,0.9,0.7,1.6,0.7H20h11.9
			c0.6,0,1.2-0.3,1.6-0.7s0.5-1,0.4-1.7c-0.6-2.8-2.4-5.3-4.8-7.1S23.4,21.7,20,21.7z"/>
	</g>
</g>
</svg>
